<svg xmlns="http://www.w3.org/2000/svg" viewBox="0 0 24 24" width="24" height="24">
  <path fill="#FFCA28" d="M3.89 15.673L6.255.461A.542.542 0 0 1 7.27.288l2.543 4.771zm16.794 3.692l-2.25-14a.54.54 0 0 0-.919-.295l-14.52 14.294 7.285 4.25a1.621 1.621 0 0 0 1.61 0l8.794-4.25z"/>
  <path fill="#FFA000" d="M10.486 13.624L7.828 8.245l-3.938 7.428z"/>
  <path fill="#F57F17" d="M3.895 15.673l.5-.909 5.853-10.66.5-1.188-2.524-4.75-.018-.034a.542.542 0 0 0-1.013.173l-2.328 15.2-.03.085 2.658 1.556 2.883 1.686 2.43 1.422 3.735-7.25-2.717-5.022-5.113 9.591z"/>
  <path fill="#FFCA28" d="M20.684 19.365l-.04.02-8.784 4.25a1.632 1.632 0 0 1-1.614 0l-7.277-4.25.25.237L12 24l8.784-4.248a.22.22 0 0 0 .1-.237l-.2-.15z"/>
  <path fill="#FFCA28" d="M3.89 15.673l.003-.05.003-.085 2.445-15.078c.072-.558.797-.773 1.19-.353L12 6.5 16.22 1.96c.389-.434 1.095-.248 1.175.31l2.29 14.08a.45.45 0 0 1-.5.237l-.011-.005-8.784 4.25a1.635 1.635 0 0 1-1.614 0l-7.277-4.25-.039-.022c-.622-.363-.622-1.269 0-1.633L12 10.5l-2.658-5.022-5.742 10.782c-.622.363-.622 1.27 0 1.633l.034.02-.055-.03a.832.832 0 0 1-.312-.655.823.823 0 0 1 .376-.583l.246.028z"/>
</svg> 